<svg height="511pt" viewBox="-77 0 511 511.99954" width="511pt" xmlns="http://www.w3.org/2000/svg"><path d="m303.871094 439.800781c-14.699219-1.003906-30.890625-7.636719-46.570313-21.386719-49.613281-43.480468-89.964843-111.507812-133.820312-133.621093-43.855469-22.128907-56.132813-56.113281-36.25-100.910157 12.183593-27.433593 10.214843-90.246093 6.855469-134.800781-2.128907-28.199219-4.808594-49.082031-4.808594-49.082031l117.328125.261719s1.0625 159.386719 18.640625 195.203125c17.578125 35.8125 129.574218 135.175781 132.976562 186.960937 2.324219 35.425781-22.535156 59.566407-54.351562 57.375zm0 0" fill="#fb6572"/><path d="m303.871094 439.800781c-14.699219-1.003906-30.890625-7.636719-46.570313-21.386719-49.613281-43.480468-89.964843-111.507812-133.820312-133.621093-43.855469-22.128907-56.132813-56.113281-36.25-100.910157 12.183593-27.433593 10.214843-90.246093 6.855469-134.800781l58.136718.125s1.0625 159.390625 18.640625 195.203125 129.574219 135.164063 132.976563 186.960938c.1875 2.890625.199218 5.695312.03125 8.429687zm0 0" fill="#ea394e"/><path d="m118.972656 75.460938c-4.085937 0-7.527344-3.175782-7.800781-7.3125l-2.773437-42.21875c-.285157-4.3125 2.980468-8.035157 7.292968-8.320313 4.320313-.273437 8.039063 2.980469 8.320313 7.292969l2.777343 42.222656c.28125 4.308594-2.984374 8.035156-7.296874 8.320312-.171876.011719-.347657.015626-.519532.015626zm0 0" fill="#d62241"/><path d="m87.230469 183.882812 83.152343 20.625-30.378906 90.757813c-5.464844-4.132813-10.960937-7.667969-16.523437-10.472656-43.855469-22.128907-56.132813-56.113281-36.25-100.910157zm0 0" fill="#343c3f"/><path d="m303.871094 439.800781c-.042969 0-.082032-.011719-.125 0-10.839844-.773437-22.480469-4.601562-34.125-12.070312 3.800781-16.390625 9.171875-29.980469 15.253906-41.207031 22.03125-40.726563 53.390625-50.4375 53.390625-50.4375 11.371094 17.273437 19.101563 33.308593 19.957031 46.339843 2.324219 35.425781-22.535156 59.574219-54.351562 57.375zm0 0" fill="#515a5e"/><path d="m303.871094 439.800781c-.042969 0-.082032-.011719-.125 0-10.839844-.773437-22.480469-4.601562-34.125-12.070312 3.800781-16.390625 9.171875-29.980469 15.253906-41.207031 10.828125 16.710937 18.128906 32.191406 18.964844 44.847656.1875 2.890625.199218 5.695312.03125 8.429687zm0 0" fill="#343c3f"/><path d="m129.113281 72.3125s1.0625 159.394531 18.636719 195.207031c17.574219 35.808594 129.574219 135.171875 132.980469 186.960938 3.402343 51.789062-51.3125 79.480469-100.921875 35.992187-49.613282-43.492187-89.964844-111.507812-133.824219-133.632812-43.855469-22.121094-56.128906-56.105469-36.242187-100.902344 19.886718-44.800781 2.042968-183.882812 2.042968-183.882812zm0 0" fill="#fb6572"/><path d="m9.738281 255.9375 83.152344 20.625-30.378906 90.757812c-5.464844-4.132812-10.964844-7.667968-16.523438-10.472656-43.855469-22.128906-56.136719-56.113281-36.25-100.910156zm0 0" fill="#515a5e"/><path d="m192.128906 499.785156c17.597656-75.839844 68.640625-91.644531 68.640625-91.644531 11.371094 17.273437 19.101563 33.308594 19.957031 46.335937 3.117188 47.53125-42.6875 74.757813-88.597656 45.308594zm0 0" fill="#515a5e"/><g fill="#d62241"><path d="m41.484375 147.511719c-4.085937 0-7.527344-3.171875-7.800781-7.3125l-2.777344-42.21875c-.28125-4.3125 2.980469-8.035157 7.292969-8.320313 4.308593-.273437 8.039062 2.980469 8.320312 7.292969l2.777344 42.222656c.285156 4.308594-2.980469 8.035157-7.292969 8.320313-.171875.007812-.347656.015625-.519531.015625zm0 0"/><path d="m72.011719 148.765625c-4.089844 0-7.53125-3.171875-7.800781-7.3125l-2.777344-42.21875c-.285156-4.3125 2.980468-8.035156 7.292968-8.320313 4.304688-.273437 8.035157 2.980469 8.320313 7.292969l2.777344 42.222657c.285156 4.308593-2.980469 8.035156-7.292969 8.320312-.175781.011719-.347656.015625-.519531.015625zm0 0"/><path d="m102.535156 150.019531c-4.085937 0-7.527344-3.171875-7.800781-7.308593l-2.777344-42.222657c-.28125-4.308593 2.984375-8.035156 7.296875-8.320312 4.324219-.28125 8.035156 2.984375 8.320313 7.296875l2.773437 42.21875c.285156 4.3125-2.980468 8.035156-7.292968 8.320312-.171876.011719-.347657.015625-.519532.015625zm0 0"/><path d="m149.5 76.714844c-4.089844 0-7.53125-3.171875-7.800781-7.308594l-2.777344-42.222656c-.285156-4.3125 2.980469-8.035156 7.292969-8.320313 4.3125-.273437 8.039062 2.980469 8.320312 7.292969l2.777344 42.222656c.285156 4.3125-2.980469 8.035156-7.292969 8.320313-.175781.011719-.347656.015625-.519531.015625zm0 0"/><path d="m180.023438 77.96875c-4.085938 0-7.527344-3.171875-7.800782-7.308594l-2.777344-42.21875c-.28125-4.3125 2.984376-8.039062 7.296876-8.324218 4.324218-.273438 8.035156 2.984374 8.320312 7.296874l2.777344 42.21875c.28125 4.3125-2.984375 8.035157-7.296875 8.320313-.171875.011719-.347657.015625-.519531.015625zm0 0"/></g></svg>