<svg id="icon" height="512" viewBox="0 0 128 128" width="512" xmlns="http://www.w3.org/2000/svg"><path d="m49.353 16.673h29.294l4.439 11.682-15.282 22.572-22.712-8.132-5.047-10.514z" fill="#8ae0a1"/><path d="m67.8 51.927a1 1 0 0 1 -.337-.059l-22.708-8.131a1 1 0 0 1 -.564-.509l-5.048-10.515a1 1 0 0 1 .042-.945l9.309-15.607a1 1 0 0 1 .859-.488h29.293a1 1 0 0 1 .935.645l4.44 11.682a1 1 0 0 1 -.106.916l-15.283 22.571a1 1 0 0 1 -.832.44zm-21.985-9.935 21.6 7.731 14.556-21.5-4.01-10.552h-28.04l-8.743 14.661z" fill="#2f3a5a"/><path d="m101.593 22.491a6.438 6.438 0 0 0 -3.807-2.258l-10.986-2.048-8.15-1.511c3.561 17.826-13.041 18.986-14.65 19.056-1.62-.07-18.209-1.23-14.647-19.056l-9.313 1.733-9.822 1.828a6.439 6.439 0 0 0 -3.81 2.258l-25.408 26.807 16.354 21.117 12.246-11.817v52.731h68.8v-52.731l12.251 11.821 16.349-21.121z" fill="#8ae0a1"/><path d="m98.4 112.327h-68.8a1 1 0 0 1 -1-1v-50.377l-10.552 10.187a1 1 0 0 1 -1.485-.107l-16.351-21.119a1 1 0 0 1 .065-1.3l25.406-26.811a7.383 7.383 0 0 1 4.353-2.553l19.134-3.56a1 1 0 0 1 1.164 1.179c-1.05 5.257-.372 9.467 2.017 12.511 3.828 4.877 10.9 5.315 11.694 5.35.708-.034 7.781-.476 11.608-5.354 2.388-3.044 3.066-7.251 2.016-12.506a1 1 0 0 1 1.163-1.179l19.137 3.56a7.447 7.447 0 0 1 4.375 2.579l25.382 26.783a1 1 0 0 1 .065 1.3l-16.352 21.119a1 1 0 0 1 -1.485.107l-10.554-10.186v50.377a1 1 0 0 1 -1 1zm-67.793-2h66.793v-51.727a1 1 0 0 1 1.694-.72l11.448 11.047 15.144-19.559-24.819-26.189c-.017-.018-.034-.037-.049-.056a5.443 5.443 0 0 0 -3.218-1.907l-17.721-3.3c.77 5.2-.121 9.46-2.655 12.69-4.289 5.467-11.733 6.056-13.182 6.118-1.534-.062-8.978-.647-13.267-6.113-2.535-3.23-3.427-7.5-2.656-12.695l-17.719 3.301a5.451 5.451 0 0 0 -3.219 1.908l-24.863 26.239 15.144 19.56 11.449-11.048a1 1 0 0 1 1.694.72z" fill="#2f3a5a"/><path d="m121.259 43.242-16.542 21.452 5.933 5.719 16.35-21.117z" fill="#dbe2eb"/><path d="m110.65 71.413a1 1 0 0 1 -.694-.28l-5.933-5.72a1 1 0 0 1 -.1-1.331l16.542-21.452a1 1 0 0 1 1.518-.077l5.741 6.054a1 1 0 0 1 .065 1.3l-16.349 21.118a1 1 0 0 1 -.718.385zm-4.594-6.818 4.486 4.325 15.143-19.558-4.347-4.584z" fill="#2f3a5a"/><path d="m7.212 42.746 16.071 21.948-5.933 5.719-16.35-21.117z" fill="#dbe2eb"/><path d="m17.35 71.413h-.072a1 1 0 0 1 -.718-.385l-16.351-21.12a1 1 0 0 1 .065-1.3l6.212-6.549a.978.978 0 0 1 .789-.31 1 1 0 0 1 .743.407l16.072 21.944a1 1 0 0 1 -.113 1.311l-5.933 5.72a1 1 0 0 1 -.694.282zm-15.034-22.051 15.142 19.557 4.5-4.34-14.845-20.279z" fill="#2f3a5a"/><path d="m84.067 17.679-5.418-1c1.946 9.99-2.079 15.077-6.52 17.563a15.593 15.593 0 0 1 -14.961-.062c-4.4-2.38-8.989-7.277-7.816-17.5l-6.327 1.177s-2.125 23.943 20.975 23.954c23.738.017 20.067-24.132 20.067-24.132z" fill="#dbe2eb"/><path d="m64.024 42.812h-.024c-6.946 0-12.393-2.113-16.19-6.265-6.709-7.336-5.82-18.32-5.779-18.784a1 1 0 0 1 .813-.895l6.327-1.177a1 1 0 0 1 1.177 1.1c-.9 7.847 1.555 13.4 7.3 16.507a14.645 14.645 0 0 0 14 .069c3.8-2.128 7.933-6.717 6.026-16.5a1 1 0 0 1 1.164-1.175l5.418 1a1 1 0 0 1 .807.833c.071.465 1.658 11.477-4.716 18.889-3.657 4.246-9.147 6.398-16.323 6.398zm-20.037-24.123c-.065 2.528.143 10.88 5.306 16.517 3.4 3.714 8.351 5.6 14.707 5.6h.024c6.563 0 11.539-1.914 14.792-5.69 4.911-5.7 4.564-14.131 4.34-16.595l-3.28-.608c1.463 9.981-3.077 14.85-7.258 17.19a16.657 16.657 0 0 1 -15.924-.055c-4.3-2.327-9.158-7.18-8.458-17.155z" fill="#2f3a5a"/></svg>