<svg height="511pt" viewBox="-14 1 511 511.99974" width="511pt" xmlns="http://www.w3.org/2000/svg"><path d="m7.195312 213.515625 70.730469 95.703125 57.34375-37.441406 22.871094-14.941406-80.214844-62.664063-15.738281-21.292969c-6.703125-9.074218-17.046875-13.875-27.519531-13.875-7.066407 0-14.1875 2.183594-20.292969 6.703125-4.363281 3.222657-7.734375 7.285157-10.0625 11.804688-5.78125 11.199219-5.113281 25.1875 2.882812 36.003906zm0 0" fill="#4baa54"/><path d="m7.195312 213.515625 70.730469 95.703125 57.34375-37.441406-37.320312-11.535156-54.125-71.039063c-6.703125-9.070313-17.046875-13.871094-27.527344-13.871094-4.039063 0-8.101563.71875-11.984375 2.179688-5.78125 11.199219-5.113281 25.1875 2.882812 36.003906zm0 0" fill="#7ace84"/><path d="m211.816406 14.5-23.980468-11.8125c-7.273438-3.582031-15.800782-3.582031-23.074219 0l-23.976563 11.8125c-38.484375 18.960938-62.855468 58.140625-62.855468 101.042969v320.175781h196.742187v-320.175781c0-42.902344-24.371094-82.082031-62.855469-101.042969zm0 0" fill="#7ace84"/><path d="m175.847656.0117188c-2.277344.1054692-4.53125 1.0039062-6.628906 2.6757812l-14.710938 11.816406c-23.621093 18.957032-38.582031 58.132813-38.582031 101.035156v320.183594h-37.996093v-320.183594c0-42.902343 24.375-82.078124 62.851562-101.035156l23.980469-11.816406c3.507812-1.726562 7.285156-2.6132812 11.085937-2.6757812zm0 0" fill="#4baa54"/><g fill="#349b3b"><path d="m109.550781 422.558594c-4.324219 0-7.828125-3.503906-7.828125-7.828125v-53.054688c0-4.324219 3.503906-7.828125 7.828125-7.828125 4.328125 0 7.832031 3.503906 7.832031 7.828125v53.054688c0 4.324219-3.503906 7.828125-7.832031 7.828125zm0 0"/><path d="m242.1875 422.558594c-4.324219 0-7.828125-3.503906-7.828125-7.828125v-53.054688c0-4.324219 3.503906-7.828125 7.828125-7.828125s7.828125 3.503906 7.828125 7.828125v53.054688c0 4.324219-3.503906 7.828125-7.828125 7.828125zm0 0"/><path d="m209.027344 422.558594c-4.324219 0-7.828125-3.503906-7.828125-7.828125v-53.054688c0-4.324219 3.503906-7.828125 7.828125-7.828125 4.328125 0 7.832031 3.503906 7.832031 7.828125v53.054688c0 4.324219-3.503906 7.828125-7.832031 7.828125zm0 0"/><path d="m142.710938 422.558594c-4.324219 0-7.828126-3.503906-7.828126-7.828125v-53.054688c0-4.324219 3.503907-7.828125 7.828126-7.828125 4.324218 0 7.828124 3.503906 7.828124 7.828125v53.054688c0 4.324219-3.503906 7.828125-7.828124 7.828125zm0 0"/><path d="m175.871094 422.558594c-4.328125 0-7.832032-3.503906-7.832032-7.828125v-53.054688c0-4.324219 3.503907-7.828125 7.832032-7.828125 4.324218 0 7.828125 3.503906 7.828125 7.828125v53.054688c0 4.324219-3.503907 7.828125-7.828125 7.828125zm0 0"/></g><path d="m476.933594 289.785156-70.734375 95.703125-57.34375-37.445312-22.871094-14.9375 80.214844-62.664063 15.742187-21.296875c6.699219-9.070312 17.042969-13.871093 27.515625-13.871093 7.066407 0 14.1875 2.179687 20.292969 6.699218 4.363281 3.226563 7.734375 7.289063 10.0625 11.808594 5.785156 11.199219 5.117188 25.1875-2.878906 36.003906zm0 0" fill="#4baa54"/><path d="m476.933594 289.785156-70.734375 95.703125-57.34375-37.445312 37.320312-11.535157 54.125-71.035156c6.703125-9.070312 17.046875-13.875 27.527344-13.875 4.039063 0 8.101563.722656 11.984375 2.183594 5.785156 11.199219 5.117188 25.1875-2.878906 36.003906zm0 0" fill="#7ace84"/><path d="m343.339844 90.777344-23.976563-11.8125c-7.273437-3.582032-15.800781-3.582032-23.074219 0l-23.980468 11.8125c-38.484375 18.960937-62.855469 58.140625-62.855469 101.042968v320.175782h196.742187v-320.175782c0-42.902343-24.371093-82.082031-62.855468-101.042968zm0 0" fill="#7ace84"/><path d="m307.371094 76.289062c-2.277344.105469-4.53125 1.003907-6.628906 2.671876l-14.707032 11.820312c-23.625 18.957031-38.582031 58.132812-38.582031 101.035156v320.183594h-38v-320.183594c0-42.902344 24.375-82.078125 62.851563-101.035156l23.980468-11.820312c3.507813-1.722657 7.285156-2.609376 11.085938-2.671876zm0 0" fill="#4baa54"/><path d="m241.507812 499.417969c-4.324218 0-7.828124-3.503907-7.828124-7.828125v-53.054688c0-4.320312 3.503906-7.828125 7.828124-7.828125 4.324219 0 7.828126 3.507813 7.828126 7.828125v53.054688c0 4.324218-3.503907 7.828125-7.828126 7.828125zm0 0" fill="#349b3b"/><path d="m374.144531 499.417969c-4.328125 0-7.832031-3.503907-7.832031-7.828125v-53.054688c0-4.320312 3.503906-7.828125 7.832031-7.828125 4.324219 0 7.828125 3.507813 7.828125 7.828125v53.054688c0 4.324218-3.507812 7.828125-7.828125 7.828125zm0 0" fill="#349b3b"/><path d="m340.984375 499.417969c-4.324219 0-7.828125-3.503907-7.828125-7.828125v-53.054688c0-4.320312 3.503906-7.828125 7.828125-7.828125s7.828125 3.507813 7.828125 7.828125v53.054688c0 4.324218-3.503906 7.828125-7.828125 7.828125zm0 0" fill="#349b3b"/><path d="m274.667969 499.417969c-4.328125 0-7.832031-3.503907-7.832031-7.828125v-53.054688c0-4.320312 3.503906-7.828125 7.832031-7.828125 4.324219 0 7.828125 3.507813 7.828125 7.828125v53.054688c0 4.324218-3.503906 7.828125-7.828125 7.828125zm0 0" fill="#349b3b"/><path d="m307.824219 499.417969c-4.324219 0-7.828125-3.503907-7.828125-7.828125v-53.054688c0-4.320312 3.503906-7.828125 7.828125-7.828125s7.828125 3.507813 7.828125 7.828125v53.054688c0 4.324218-3.503906 7.828125-7.828125 7.828125zm0 0" fill="#349b3b"/></svg>