<svg height="512pt" viewBox="0 -9 512.00018 512" width="512pt" xmlns="http://www.w3.org/2000/svg"><path d="m325.925781 116.910156h-139.839843c-5.308594-5.953125-8.214844-13.644531-8.214844-21.554687 0-2.464844.285156-4.964844.867187-7.429688.578125-2.433593.867188-4.933593.867188-7.429687 0-2.488282-.289063-4.984375-.867188-7.429688-2.765625-11.765625 1.234375-24.085937 10.386719-31.972656l.011719-.011719c3.792969-3.269531 6.78125-7.375 8.726562-11.996093l.007813-.050782c4.671875-11.117187 15.132812-18.722656 27.15625-19.738281h.074218c4.972657-.417969 9.78125-1.984375 14.054688-4.566406l.082031-.050781c10.304688-6.238282 23.230469-6.238282 33.542969 0l.074219.050781c3.605469 2.183593 7.59375 3.636719 11.742187 4.285156.765625.125 1.539063.21875 2.308594.28125h.085938c12.015624 1.015625 22.476562 8.621094 27.144531 19.738281l.023437.050782c1.933594 4.621093 4.921875 8.726562 8.722656 11.996093v.011719c9.15625 7.886719 13.167969 20.207031 10.386719 31.972656-.574219 2.445313-.855469 4.941406-.855469 7.429688 0 2.496094.28125 4.996094.855469 7.429687 2.445313 10.367188-.375 21.167969-7.34375 28.984375zm0 0" fill="#0e708e"/><path d="m325.925781 116.910156h-82.652343c-5.308594-5.953125-8.214844-13.644531-8.214844-21.554687 0-2.464844.285156-4.964844.867187-7.429688.578125-2.433593.867188-4.933593.867188-7.429687 0-2.488282-.289063-4.984375-.867188-7.429688-2.765625-11.765625 1.234375-24.085937 10.386719-31.972656l.011719-.011719c3.792969-3.269531 6.78125-7.375 8.726562-11.996093l.007813-.050782c4.671875-11.117187 15.132812-18.722656 27.15625-19.738281h.074218c.773438-.0625 1.546876-.15625 2.308594-.28125.765625.125 1.539063.21875 2.308594.28125h.085938c12.015624 1.015625 22.476562 8.621094 27.144531 19.738281l.023437.050782c1.933594 4.621093 4.921875 8.726562 8.722656 11.996093v.011719c9.15625 7.886719 13.167969 20.207031 10.386719 31.972656-.574219 2.445313-.855469 4.941406-.855469 7.429688 0 2.496094.28125 4.996094.855469 7.429687 2.445313 10.367188-.375 21.167969-7.34375 28.984375zm0 0" fill="#4695bc"/><path d="m480 343.269531h-447.980469c-6.882812-64.011719 34.816407-180.464843 140.761719-221.6875 24.292969-9.464843 51.972656-14.964843 83.226562-14.964843 14.605469 0 28.441407 1.203124 41.511719 3.449218 14.902344 2.5625 28.808594 6.488282 41.765625 11.535156 105.910156 41.242188 147.589844 157.667969 140.714844 221.667969zm0 0" fill="#9dcae0"/><path d="m480 343.269531h-364.917969c-6.886719-64.011719 34.816407-180.464843 140.757813-221.6875 12.925781-5.035156 26.800781-8.945312 41.679687-11.515625 14.902344 2.5625 28.808594 6.488282 41.765625 11.535156 105.910156 41.242188 147.589844 157.667969 140.714844 221.667969zm0 0" fill="#cce6f6"/><path d="m443.835938 336.664062c-.125 2.882813-1.785157 5.339844-4.15625 6.601563-1.097657.585937-2.351563.910156-3.667969.910156-.105469 0-.21875 0-.324219-.011719-1.203125-.050781-2.320312-.363281-3.3125-.898437-2.601562-1.347656-4.324219-4.117187-4.199219-7.25 1.054688-25.789063-4.003906-57.492187-13.867187-86.976563-11.492188-34.316406-28.777344-64.347656-50-86.84375-14.785156-15.671874-31.1875-27.523437-49.078125-35.503906 13.167969 14.023438 24.785156 33.183594 34.566406 57.28125 20.1875 49.695313 27.429687 107.375 27.460937 144.769532.007813 4.328124-3.5 7.847656-7.828124 7.847656 0 0 0 0-.011719 0-4.3125 0-7.824219-3.5-7.835938-7.824219-.03125-35.925781-6.957031-91.285156-26.300781-138.902344-10.738281-26.421875-28.042969-56.757812-53.707031-69.390625 6.84375 13.941406 12.570312 34.734375 17.398437 62.882813 8.179688 47.6875 11.328125 104.230469 11.546875 141.238281.03125 4.328125-3.460937 7.859375-7.785156 7.878906h-.050781c-4.308594 0-7.808594-3.480468-7.839844-7.792968-.207031-36.386719-3.300781-91.921876-11.316406-138.671876-9.496094-55.398437-21.386719-70.957031-27.1875-71.53125h-.667969c-5.789063.574219-17.679687 16.132813-27.1875 71.53125-8.015625 46.761719-11.109375 102.296876-11.328125 138.671876-.019531 4.3125-3.519531 7.792968-7.824219 7.792968h-.054687c-4.324219-.019531-7.816406-3.550781-7.792969-7.878906.230469-37.007812 3.375-93.539062 11.554687-141.238281 4.828126-28.148438 10.554688-48.953125 17.410157-62.882813-25.675781 12.632813-42.976563 42.96875-53.710938 69.390625-19.339843 47.609375-26.277343 102.964844-26.320312 138.902344 0 2.160156-.875 4.113281-2.296875 5.535156-1.410156 1.410157-3.375 2.289063-5.539063 2.289063-4.335937 0-7.835937-3.519532-7.835937-7.847656.050781-37.40625 7.28125-95.074219 27.46875-144.769532 9.792968-24.097656 21.410156-43.269531 34.578125-57.28125-17.890625 7.972656-34.304688 19.820313-49.101563 35.503906-21.210937 22.496094-38.492187 52.527344-49.988281 86.84375-9.875 29.484376-14.921875 61.1875-13.863281 86.976563.125 3.132813-1.601563 5.902344-4.203125 7.25-.992188.535156-2.109375.847656-3.3125.898437-1.441407.0625-2.808594-.257812-3.992188-.898437-2.371093-1.261719-4.03125-3.71875-4.15625-6.601563-2.144531-52.164062 18.265625-132.367187 68.117188-185.21875 11.304687-11.984374 23.488281-21.953124 36.488281-29.863281 24.292969-9.46875 51.972656-14.964843 83.226562-14.964843 31.273438 0 58.960938 5.507812 83.277344 14.984374 12.976563 7.910157 25.140625 17.867188 36.425782 29.84375 49.863281 52.851563 70.257812 133.058594 68.125 185.21875zm0 0" fill="#7fb6cc"/><path d="m511.191406 389.113281c-5.101562 24.609375-10.1875 49.226563-15.289062 73.835938-4.230469 20.425781-23.917969 33.726562-44.46875 30.164062-94.542969-16.371093-190.632813-20.773437-286.011719-13.207031-.007813 0-.007813 0-.019531 0-35.078125 2.78125-70.050782 7.1875-104.824219 13.207031-20.554687 3.5625-40.25-9.738281-44.472656-30.164062-5.097657-24.609375-10.195313-49.226563-15.296875-73.835938-4.417969-21.34375 9.730468-42.078125 31.203125-45.847656 33.96875-5.957031 68.125-10.542969 102.378906-13.761719 115.148437-10.835937 231.382813-6.25 345.597656 13.761719 21.484375 3.769531 35.621094 24.503906 31.203125 45.847656zm0 0" fill="#4695bc"/><path d="m165.402344 479.90625c-35.078125 2.78125-70.050782 7.1875-104.824219 13.207031-20.554687 3.5625-40.25-9.738281-44.472656-30.164062-5.097657-24.609375-10.195313-49.226563-15.296875-73.835938-4.417969-21.34375 9.730468-42.078125 31.203125-45.847656 33.96875-5.957031 68.125-10.542969 102.378906-13.761719-61.492187 7.273438-53.5 142.417969 31.011719 150.402344zm0 0" fill="#0e708e"/></svg>