<svg id="Capa_1" enable-background="new 0 0 494.955 494.955" height="512" viewBox="0 0 494.955 494.955" width="512" xmlns="http://www.w3.org/2000/svg"><g><path d="m397.223 182.414 64.216-85.429c-.827-4.799-3.091-8.959-6.504-12.371-11.07-11.07-29.977-10.111-53.183 13.094l36.196-57.409c-.827-4.799-3.091-8.959-6.504-12.371-11.07-11.07-29.977-10.111-53.183 13.094l-19.02 19.02 19.598-40.811c-.827-4.799-3.091-8.959-6.504-12.371-11.07-11.07-29.977-10.111-53.183 13.094-14.242 14.242-71.002 71.002-91.932 91.932l10.633-31.846c-3.866-16.452-21.428-26.836-36.335-14.457-25.355 21.054-46.417 30.652-57.641 34.711-5.983 2.164-11.199 6.036-14.93 11.189l-55.608 76.797c-12.652 28.1-19.849 39.642-11.935 143.335l-55.911 55.911c-2.929 2.929-2.929 7.678 0 10.607l88.261 88.261 71.214-61.214c12.265 2.161 70.161-1.325 100.63-31.794 35.372-35.372 62.895-73.277 93.241-103.624 27.511-27.511 69.329-79.329 98.07-108.07-.827-4.799-3.091-8.959-6.504-12.371-11.07-11.071-29.977-10.112-53.182 13.093z" fill="#ffcdbe"/><path d="m349.92 225.371c-14.809-20.958-34.104-39.355-46.825-43.321-6.793-2.118-21.666 6.901-23.452 22.483l-26.769-26.769c-8.001-8.001-17.657-5.194-25.345 2.493s-10.494 17.344-2.493 25.345c0 0-4.624-4.625-6.558-6.558-8.001-8.001-17.657-5.194-25.345 2.493-7.687 7.687-10.494 17.344-2.493 25.345l5.723 5.723c-8.001-8.001-17.657-5.194-25.345 2.493-7.687 7.687-10.494 17.344-2.493 25.345l5.234 5.234c-24.038 12.246-23.336 27.284-8.719 41.902l20.001 20.001c14.636 14.636 16.877 16.879 34.995 34.997 26.466 26.466 60.755 16.172 61.466 15.736 0 0 .562 1.504 1.747 4.097 26.175-28.089 48.445-56.87 71.903-81.534 9.642-38.737 5.938-59.698-5.232-75.505z" fill="#ebae9d"/><path d="m304.278 173.968 133.67-133.67c1.855 10.767-3.547 24.76-19.598 40.811l-16.598 16.598s-75.648 75.648-86.867 86.867c-2.929 2.929-7.678 2.929-10.607 0-2.929-2.928-2.929-7.677 0-10.606zm-26.603-32.361c14.326-14.326 81.567-81.567 81.567-81.567 16.051-16.051 21.453-30.044 19.598-40.811l-111.772 111.772c-2.929 2.929-2.929 7.678 0 10.607 2.929 2.928 7.678 2.928 10.607-.001zm74.04 86.315 45.508-45.508 44.618-44.618c16.051-16.051 21.453-30.044 19.598-40.811l-120.679 120.679zm-212.652-64.237s19.253 3.428 37.036-4.826c13.461 32.373 18.298 66.774 13.964 99.551-3.967 30.006-15.289 55.669-31.88 72.261-2.929 2.929-2.929 7.678 0 10.606 1.464 1.464 3.384 2.197 5.303 2.197s3.839-.732 5.303-2.197c35.104-35.104 53.52-111.322 20.798-189.074-.237-.563-.542-1.193-.882-1.852.29-.275.585-.537.871-.822 15.698-15.698 21.598-21.598 37.646-37.646 10.46-10.46 12.9-22.196 10.633-31.846-19.057 19.057-46.583 46.583-58.886 58.886-10.522 10.522-19.744 11.138-37.268 9.995-4.078-.728-7.974 1.987-8.702 6.064-.729 4.079 1.986 7.975 6.064 8.703zm-65.724 24.595c-17.053 23.551-28.165 82.806-11.935 143.335 1.073 4.001 5.186 6.374 9.187 5.302 4.001-1.073 6.374-5.186 5.302-9.187-16.231-60.528-15.206-111.35-2.554-139.45zm280.5 96.482c-30.346 30.346-57.869 68.251-93.241 103.624-26.663 26.663-74.331 32.664-94.042 32.298-4.42-.082-8.69 1.598-11.816 4.724l-60.986 60.986 5.303 5.303c2.929 2.929 7.678 2.929 10.607 0l55.911-55.911c1.023.628 68.015.821 105.63-36.794 35.372-35.372 62.895-73.277 93.242-103.624 29.395-29.395 54.182-54.182 72.866-72.866 16.051-16.051 21.453-30.044 19.598-40.811-28.743 28.742-75.561 75.56-103.072 103.071z" fill="#ebae9d"/><path d="m413.137 486.393 76.331-76.32c2.563-2.563 2.909-6.582.867-9.577-24.369-35.745-61.771-49.279-61.771-49.279-24.106-39.714-64.118-55.849-64.118-55.849 11.27-42.032 7.733-64.115-3.919-80.604-14.809-20.958-34.104-39.355-46.825-43.321-4.212-1.313-11.527 1.658-16.906 7.816l-6.546 14.667-26.769-26.769c-6.046-6.046-13.037-5.918-19.41-2.178-7.941 7.941-8.43 30.015-8.43 30.015s.001.001.001.001-.072-.072-.202-.203c-.912-.912-4.664-4.664-6.355-6.355-6.046-6.046-13.037-5.918-19.41-2.178-7.192 7.192-2.705 35.739-2.705 35.739-6.046-6.046-13.037-5.918-19.41-2.178-11.364 11.364-3.194 35.25-3.194 35.25-2.317 1.181-4.399 2.388-6.266 3.617-4.831 8.84-6.179 23.344 3.154 32.678 6.442 6.442 36.878 36.88 54.996 54.998 26.466 26.466 60.755 16.172 61.466 15.736 0 0 15.264 40.93 55.211 64.647 0 0 20.264 35.93 60.21 59.647z" fill="#ffcbce"/><path d="m290.25 193.926c.679-5.922 3.249-10.892 6.546-14.667 7.552 7.552 15.291 15.291 20.458 20.458 7.17 7.17 24.74 18.137 28.19 20.43 3.45 2.292 4.388 6.948 2.096 10.397-2.292 3.45-6.948 4.388-10.397 2.096 0 0-22.271-14.092-29.441-21.262-4.409-4.409-10.833-10.833-17.452-17.452zm-23.876 31.8c2.929 2.929 7.678 2.929 10.607 0s2.929-7.678 0-10.607c-14.178-14.178-24.289-24.289-30.731-30.731-6.046-6.046-5.918-13.037-2.178-19.41-2.061 1.209-4.057 2.793-5.935 4.672-7.687 7.687-10.494 17.343-2.494 25.343 6.168 6.17 28.215 28.216 30.731 30.733zm-50.042 61.309c2.929 2.929 7.678 2.929 10.607 0s2.929-7.678 0-10.607c-14.178-14.178-30.757-30.757-37.199-37.199-6.046-6.046-5.918-13.037-2.178-19.41-2.061 1.209-4.057 2.793-5.935 4.672-7.687 7.687-10.494 17.344-2.493 25.345l5.234 5.234c-.002 0 29.035 29.036 31.964 31.965zm22.204-33.472c2.929 2.929 7.678 2.929 10.607 0s2.929-7.678 0-10.607c-14.178-14.178-30.847-30.846-37.289-37.289-6.046-6.046-5.918-13.037-2.178-19.41-2.061 1.209-4.057 2.793-5.935 4.672-7.687 7.687-10.494 17.344-2.493 25.345l5.723 5.723c-.001.001 28.636 28.637 31.565 31.566zm174.601 232.83c-39.947-23.717-55.211-64.647-55.211-64.647-33.684-19.999-49.818-52.236-54.049-61.853-.679-1.544-2.349-2.377-3.993-2.001-8.822 2.017-36.471 5.633-58.635-16.53-18.117-18.117-48.554-48.556-54.996-54.998-9.333-9.333-12.986-18.838-8.154-27.678-17.501 11.525-15.66 25.076-2.452 38.284 6.442 6.442 36.878 36.88 54.996 54.998 26.466 26.466 60.755 16.172 61.466 15.736 0 0 15.264 40.93 55.211 64.647 0 0 13.911 37.303 49.929 61.321 2.992 1.995 6.973 1.636 9.516-.908z" fill="#ffb3b7"/></g></svg>