<svg height="512pt" viewBox="0 0 512 512" width="512pt" xmlns="http://www.w3.org/2000/svg"><g fill="#757575"><path d="m470.375 83.253906v74.925782c0 4.597656 3.726562 8.324218 8.324219 8.324218h24.976562c4.597657 0 8.324219-3.726562 8.324219-8.324218v-74.925782c0-45.980468-37.273438-83.253906-83.253906-83.253906h-74.925782c-4.597656 0-8.324218 3.726562-8.324218 8.324219v24.976562c0 4.597657 3.726562 8.324219 8.324218 8.324219h74.925782c22.992187 0 41.628906 18.636719 41.628906 41.628906zm0 0"/><path d="m41.625 83.253906v74.925782c0 4.597656-3.726562 8.324218-8.324219 8.324218h-24.976562c-4.597657 0-8.324219-3.726562-8.324219-8.324218v-74.925782c0-45.980468 37.273438-83.253906 83.253906-83.253906h74.925782c4.597656 0 8.324218 3.726562 8.324218 8.324219v24.976562c0 4.597657-3.726562 8.324219-8.324218 8.324219h-74.925782c-22.992187 0-41.628906 18.636719-41.628906 41.628906zm0 0"/><path d="m41.625 428.746094v-74.925782c0-4.597656-3.726562-8.324218-8.324219-8.324218h-24.976562c-4.597657 0-8.324219 3.726562-8.324219 8.324218v74.925782c0 45.980468 37.273438 83.253906 83.253906 83.253906h74.925782c4.597656 0 8.324218-3.726562 8.324218-8.324219v-24.976562c0-4.597657-3.726562-8.324219-8.324218-8.324219h-74.925782c-22.992187 0-41.628906-18.636719-41.628906-41.628906zm0 0"/><path d="m470.375 428.746094v-83.25h41.625v83.25c0 45.980468-37.273438 83.253906-83.253906 83.253906h-74.925782c-4.597656 0-8.324218-3.726562-8.324218-8.324219v-24.976562c0-4.597657 3.726562-8.324219 8.324218-8.324219h74.925782c22.992187 0 41.628906-18.636719 41.628906-41.628906zm0 0"/></g><path d="m256 447.480469c-87.933594 0-159.21875-71.285157-159.21875-159.21875v-64.519531c0-87.933594 71.285156-159.21875 159.21875-159.21875s159.21875 71.285156 159.21875 159.21875v64.519531c0 87.933593-71.285156 159.21875-159.21875 159.21875zm0 0" fill="#feccc1"/><path d="m256 64.519531c-5.445312 0-10.824219.277344-16.128906.808594 80.359375 8.085937 143.089844 75.921875 143.089844 158.410156v64.523438c0 82.488281-62.734376 150.324219-143.089844 158.410156 5.304687.53125 10.683594.808594 16.128906.808594 87.933594 0 159.21875-71.285157 159.21875-159.21875v-64.519531c0-87.9375-71.285156-159.222657-159.21875-159.222657zm0 0" fill="#f9b3a7"/><path d="m370.472656 249.238281c-3.164062 0-6.136718-1.9375-7.3125-5.074219-4.914062-13.148437-17.867187-21.984374-32.234375-21.984374-14.363281 0-27.316406 8.835937-32.234375 21.984374-1.507812 4.039063-6.003906 6.085938-10.042968 4.578126-4.039063-1.507813-6.085938-6.007813-4.578126-10.042969 7.183594-19.21875 26.015626-32.128907 46.855469-32.128907 20.84375 0 39.675781 12.910157 46.855469 32.128907 1.511719 4.035156-.539062 8.535156-4.578125 10.042969-.898437.335937-1.820313.496093-2.730469.496093zm0 0" fill="#757575"/><path d="m219.578125 249.238281c-3.164063 0-6.140625-1.9375-7.3125-5.074219-4.914063-13.148437-17.867187-21.984374-32.234375-21.984374-14.363281 0-27.316406 8.835937-32.234375 21.984374-1.507813 4.039063-6.003906 6.085938-10.042969 4.578126-4.039062-1.507813-6.085937-6.007813-4.578125-10.042969 7.183594-19.21875 26.011719-32.128907 46.855469-32.128907s39.671875 12.910157 46.855469 32.128907c1.511719 4.035156-.539063 8.535156-4.578125 10.042969-.898438.335937-1.824219.496093-2.730469.496093zm0 0" fill="#757575"/><path d="m203.046875 341.332031c-7.089844 0-10.878906 8.246094-6.359375 13.707031 14.121094 17.054688 35.441406 27.921876 59.3125 27.921876s45.191406-10.867188 59.3125-27.921876c4.519531-5.460937.730469-13.707031-6.359375-13.707031zm0 0" fill="#ff5f5f"/></svg>