<svg height="512" viewBox="0 0 60 59" width="512" xmlns="http://www.w3.org/2000/svg"><g id="001---Beetle" fill="none" transform="translate(-1)"><path id="Shape" d="m43 11v8h-24v-8c.0022575-1.90796605.9118287-3.70112063 2.45-4.83h19.1c1.5381713 1.12887937 2.4477425 2.92203395 2.45 4.83z" fill="#2c3e50"/><path id="Shape" d="m43 11v4h-24v-4c.0065987-1.81874168.8378047-3.53632219 2.26-4.67.24-.24-1.19-.16 19.29-.16l.19.16c1.4221953 1.13367781 2.2534013 2.85125832 2.26 4.67z" fill="#35495e"/><path id="Shape" d="m42 10c-.000766 2.646128-1.734916 4.9793326-4.2684585 5.7429793-2.5335425.7636466-5.2682199-.2225882-6.7311694-2.427531s-1.3087178-5.10792955.3796279-7.1454483h9.17c.9583357 1.04241424 1.47771 2.41427864 1.45 3.83z" fill="#2c3e50"/><path id="Shape" d="m32 10c.0037752 2.6237775-1.6977081 4.9456929-4.2007371 5.732502-2.503029.786809-5.2269833-.1440022-6.7250828-2.2980497-1.4980994-2.1540476-1.4228342-5.03166321.1858199-7.1044523.23-.23-.7-.16 9.36-.16.8814628 1.08298099 1.368141 2.43368918 1.38 3.83z" fill="#2c3e50"/><g fill="#35495e"><path id="Shape" d="m16 22c-.1568771.0018772-.3116796-.0359634-.45-.11-2.8494424-1.5959539-4.5958721-4.6243781-4.55-7.89-.0347886-2.9507799-.6817723-5.86220657-1.9-8.55-.24548361-.4943143-.04408087-1.0940469.45-1.34.4916536-.2469243 1.0904244-.05031299 1.34.44 1.3659312 2.9645885 2.085201 6.1859629 2.11 9.45-.0274846 2.5076172 1.2885616 4.8383541 3.45 6.11.4101627.2101126.6236218.6733224.51688 1.1216381-.1067419.4483157-.5060402.7656308-.96688.7683619z"/><path id="Shape" d="m11.51 10.57c-.2289953.000964-.4513841-.0766957-.63-.22-1.12920524-.82792847-2.4807555-1.29818436-3.88-1.35-.55228475 0-1-.44771525-1-1s.44771525-1 1-1c1.85357159.05392719 3.6452392.67908995 5.13 1.79.3302445.26493461.4578584.70912706.3185947 1.10894872-.1392637.39982168-.5152204.66861308-.9385947.67105128z"/><path id="Shape" d="m6 59c-.3483719.002433-.67290102-.1766148-.8566239-.4726128-.18372288-.2959979-.20015578-.6662778-.0433761-.9773872 1.21822769-2.6877934 1.8652114-5.5992201 1.9-8.55-.04587207-3.2656219 1.70055761-6.2940461 4.55-7.89.3211808-.1932607.7234705-.1906728 1.0421383.0067041.3186678.1973768.5001928.5563928.4702434.9300368s-.2663431.6991617-.6123817.8432591c-2.1738625 1.2593998-3.49438786 3.5980694-3.45 6.11-.02479898 3.2640371-.74406882 6.4854115-2.11 9.45-.16945024.3362797-.51344179.5488587-.89.55z"/><path id="Shape" d="m3 56c-.55228475 0-1-.4477153-1-1s.44771525-1 1-1c1.3992445-.0518156 2.75079476-.5220715 3.88-1.35.20784463-.1666477.47359297-.2434734.73829771-.213436s.50648223.1644547.67170229.373436c.34035688.4313699.26890818 1.0565461-.16 1.4-1.48476081 1.11091-3.27642841 1.7360728-5.13 1.79z"/><path id="Shape" d="m11.83 35.86c-1.6912043-.2408788-3.19262852-1.2089504-4.11-2.65-1.22-2-4.2-4.12-6.18-5.15-.49153343-.254051-.68405098-.8584666-.43-1.35s.85846657-.684051 1.35-.43c2.36 1.24 5.53 3.58 7 5.87.6153027.9587653 1.6208726 1.5986735 2.75 1.75.3572656.0607352.6549908.3074557.7810254.6472243.1260346.3397687.061231.7209665-.17 1s-.5937598.4135109-.9510254.3527757z"/><path id="Shape" d="m2 33.17c-.41563181-.0005971-.78756312-.2582244-.93423169-.6471183-.14666857-.388894-.03749292-.8279673.27423169-1.1028817 1.425503-1.2312745 3.18868905-2.0048463 5.06-2.22.55228475 0 1 .4477153 1 1s-.44771525 1-1 1c-1.40397758.2019526-2.72174953.7984178-3.8 1.72-.16658098.1478218-.37774109.2358052-.6.25z"/><path id="Shape" d="m56 59c-.3765582-.0011413-.7205498-.2137203-.89-.55-1.3659312-2.9645885-2.085201-6.1859629-2.11-9.45.0274846-2.5076172-1.2885616-4.8383541-3.45-6.11-.3460386-.1440974-.5824323-.4696151-.6123817-.8432591s.1515756-.73266.4702434-.9300368c.3186678-.1973769.7209575-.1999648 1.0421383-.0067041 2.8494424 1.5959539 4.5958721 4.6243781 4.55 7.89.0347886 2.9507799.6817723 5.8622066 1.9 8.55.1567797.3111094.1403468.6813893-.0433761.9773872-.1837229.295998-.508252.4750458-.8566239.4726128z"/><path id="Shape" d="m59 56c-1.8535716-.0539272-3.6452392-.67909-5.13-1.79-.4289082-.3434539-.5003569-.9686301-.16-1.4.1652201-.2089813.4069976-.3433986.6717023-.373436s.5304531.0467883.7382977.213436c1.1292052.8279285 2.4807555 1.2981844 3.88 1.35.5522847 0 1 .4477153 1 1s-.4477153 1-1 1z"/><path id="Shape" d="m49 35.05c-.0907907-.5405389.2704635-1.0534307.81-1.15 1.1291274-.1513265 2.1346973-.7912347 2.75-1.75 1.42-2.29 4.61-4.64 7-5.87.3179664-.1643422.6994549-.1465676 1.0007626.0466283s.4766587.532462.46.89c-.0166587.3575381-.2227962.6790295-.5407626.8433717-2 1-5 3.2-6.18 5.15-.9173715 1.4410496-2.4187957 2.4091212-4.11 2.65-.2657486.0554809-.5426335.0005315-.7670559-.1522266-.2244223-.1527581-.3770929-.3901952-.4229441-.6577734z"/><path id="Shape" d="m60 33.17c-.2430724-.0003498-.4776958-.0892223-.66-.25-1.0782505-.9215822-2.3960224-1.5180474-3.8-1.72-.5522847 0-1-.4477153-1-1s.4477153-1 1-1c1.8713109.2151537 3.634497.9887255 5.06 2.22.3048658.2674193.4180415.6924803.2865176 1.0760918-.1315239.3836114-.4817023.6498081-.8865176.6739082z"/><path id="Shape" d="m46 22c-.4608398-.0027311-.8601381-.3200462-.96688-.7683619-.1067418-.4483157.1067173-.9115255.51688-1.1216381 2.1738625-1.2593998 3.4943879-3.5980694 3.45-6.11.024799-3.2640371.7440688-6.4854115 2.11-9.45.2495756-.49031299.8483464-.6869243 1.34-.44.4940809.2459531.6954836.8456857.45 1.34-1.2182277 2.68779343-1.8652114 5.5992201-1.9 8.55.0458721 3.2656219-1.7005576 6.2940461-4.55 7.89-.1383204.0740366-.2931229.1118772-.45.11z"/><path id="Shape" d="m50.49 10.57c-.4233743-.0024382-.799331-.2712296-.9385947-.67105128-.1392637-.39982166-.0116498-.84401411.3185947-1.10894872 1.4847608-1.11091005 3.2764284-1.73607281 5.13-1.79.5522847.00000002 1 .44771526 1 1s-.4477153.99999998-1 1c-1.3992445.05181564-2.7507948.52207153-3.88 1.35-.1786159.1433043-.4010047.220964-.63.22z"/><path id="Shape" d="m23 5c-.5522847 0-1-.44771525-1-1 0-.22-.23-2-4-2-.5522847 0-1-.44771525-1-1s.4477153-1 1-1c5.93 0 6 4 6 4 0 .55228475-.4477153 1-1 1z"/><path id="Shape" d="m39 5c-.5522847 0-1-.44771525-1-1 0 0 .07-4 6-4 .5522847 0 1 .44771525 1 1s-.4477153 1-1 1c-3.79 0-4 1.82-4 2 0 .55228475-.4477153 1-1 1z"/></g><circle id="Oval" cx="36" cy="8" fill="#955ba5" r="6"/><path id="Shape" d="m50 33v11c0 8.2842712-6.7157288 15-15 15h-8c-8.2842712 0-15-6.7157288-15-15v-11c0-4.418278 3.581722-8 8-8-2.209139 0-4-1.790861-4-4s1.790861-4 4-4h22c2.209139 0 4 1.790861 4 4s-1.790861 4-4 4c4.418278 0 8 3.581722 8 8z" fill="#894b9d"/><path id="Shape" d="m48 33v11c0 8.28-6 15-13.42 15h-7.16c-7.42 0-13.42-6.72-13.42-15v-11c0-4.42 3.2-8 7.16-8-2.089503-.1235685-3.6880336-1.9096363-3.58-4-.1080336-2.0903637 1.490497-3.8764315 3.58-4h19.68c2.089503.1235685 3.6880336 1.9096363 3.58 4 .1080336 2.0903637-1.490497 3.8764315-3.58 4 3.96 0 7.16 3.58 7.16 8z" fill="#955ba5"/><circle id="Oval" cx="26" cy="8" fill="#955ba5" r="6"/><circle id="Oval" cx="26" cy="8" fill="#fff" r="5"/><circle id="Oval" cx="36" cy="8" fill="#fff" r="5"/><circle id="Oval" cx="27" cy="8" fill="#35495e" r="2"/><circle id="Oval" cx="35" cy="8" fill="#35495e" r="2"/><path id="Shape" d="m38 26h-14c-.5522847 0-1-.4477153-1-1s.4477153-1 1-1h14c.5522847 0 1 .4477153 1 1s-.4477153 1-1 1z" fill="#894b9d"/><path id="Shape" d="m31 29-3 30h6z" fill="#3d324c"/><path id="Shape" d="m39 22h-16c-1.1045695 0-2-.8954305-2-2s.8954305-2 2-2h16c1.1045695 0 2 .8954305 2 2s-.8954305 2-2 2z" fill="#b49aca"/><circle id="Oval" cx="25" cy="6" fill="#fff" r="2"/><path id="Shape" d="m34.84 6c-.001599.90379263-.6091274 1.69420306-1.4820933 1.92824216-.8729658.2340391-1.7944107-.1464589-2.2479067-.92824216.0108055-.07454337.0275249-.14810883.05-.22.2772479-1.10987237.9267009-2.09111112 1.84-2.78 1.0416439.08359406 1.8433489.95501258 1.84 2z" fill="#fff"/></g></svg>