<svg id="invasion" enable-background="new 0 0 300 300" height="512" viewBox="0 0 300 300" width="512" xmlns="http://www.w3.org/2000/svg"><g><circle cx="158" cy="154" fill="#a9f8f6" r="86"/><circle cx="60" cy="192" fill="#4c241d" r="4"/><circle cx="56" cy="252" fill="#4c241d" r="4"/><circle cx="176" cy="40" fill="#4c241d" r="4"/><path d="m116.609 271.391c-1.023 0-2.047-.391-2.828-1.172-1.562-1.562-1.562-4.094 0-5.656l14.781-14.781c1.562-1.562 4.094-1.562 5.656 0s1.562 4.094 0 5.656l-14.781 14.781c-.781.781-1.804 1.172-2.828 1.172z" fill="#4c241d"/><path d="m131.391 271.391c-1.023 0-2.047-.391-2.828-1.172l-14.781-14.781c-1.562-1.562-1.562-4.094 0-5.656s4.094-1.562 5.656 0l14.781 14.781c1.562 1.562 1.562 4.094 0 5.656-.781.781-1.805 1.172-2.828 1.172z" fill="#4c241d"/><g><circle cx="100" cy="100" fill="#ffce56" r="68"/><path d="m100 172c-39.699 0-72-32.299-72-72s32.301-72 72-72 72 32.299 72 72-32.301 72-72 72zm0-136c-35.289 0-64 28.711-64 64s28.711 64 64 64 64-28.711 64-64-28.711-64-64-64z" fill="#4c241d"/></g><g><circle cx="208" cy="208" fill="#8690c3" r="60"/><path d="m208 272c-35.289 0-64-28.711-64-64s28.711-64 64-64 64 28.711 64 64-28.711 64-64 64zm0-120c-30.879 0-56 25.121-56 56s25.121 56 56 56 56-25.121 56-56-25.121-56-56-56z" fill="#4c241d"/></g><g fill="#4c241d"><path d="m110.066 90.918c-.922 0-1.848-.316-2.602-.963-1.656-1.418-1.867-3.893-.496-5.568.219-.297 5.469-7.846-.141-27.193-.613-2.121.609-4.34 2.73-4.955 2.129-.613 4.344.609 4.957 2.729 6.926 23.9-.539 33.535-1.41 34.555-.792.92-1.913 1.395-3.038 1.395z"/><path d="m110.551 93.07c-1.465 0-2.879-.809-3.578-2.207-.992-1.975-.191-4.379 1.781-5.369 18.738-9.393 16.074-28.156 16.047-28.346-.336-2.184 1.16-4.227 3.344-4.562 2.195-.318 4.227 1.16 4.562 3.344 1.312 8.51-1.254 27.135-20.367 36.717-.574.287-1.188.423-1.789.423z"/><path d="m142.922 117.307c-2.078 0-3.832-1.605-3.984-3.707-.02-.229-.992-11.213-8.676-17.188-4.672-3.635-11.07-4.781-19.031-3.4-2.164.361-4.242-1.082-4.625-3.256-.379-2.178 1.078-4.248 3.258-4.627 10.285-1.779 18.832-.098 25.375 5.018 10.527 8.238 11.637 22.283 11.676 22.877.156 2.205-1.504 4.117-3.707 4.273-.095.006-.192.01-.286.01z"/><path d="m124.871 143.811c-.422 0-.852-.066-1.277-.209-2.09-.705-3.219-2.975-2.512-5.066 2.766-8.236 8.352-31.547 1.039-40.412-2.488-3.01-6.469-4.105-12.152-3.342-2.195.287-4.203-1.246-4.496-3.436s1.246-4.201 3.434-4.494c8.547-1.141 15.07.941 19.391 6.188 11.426 13.865 1.531 44.592.363 48.049-.563 1.669-2.118 2.722-3.79 2.722z"/><path d="m83.758 96.779c-.535 0-1.082-.111-1.609-.348-1.227-.553-12.082-6.096-15.973-30.676-.348-2.182 1.141-4.23 3.324-4.576 2.176-.334 4.227 1.145 4.574 3.326 3.203 20.205 11.367 24.631 11.449 24.674 1.926.994 2.762 3.365 1.82 5.316-.691 1.435-2.101 2.284-3.585 2.284z"/><path d="m84.27 98.936c-.031 0-.066 0-.102-.002-21.375-.541-31.621-16.307-34.051-24.568-.625-2.119.586-4.342 2.707-4.967 2.117-.623 4.328.586 4.961 2.691.227.748 5.805 18.32 26.586 18.848 2.207.055 3.953 1.891 3.898 4.1-.054 2.173-1.835 3.898-3.999 3.898z"/><path d="m65.27 134.643c-1.605 0-3.117-.975-3.73-2.561-.215-.557-5.184-13.738.84-25.668 3.742-7.416 10.754-12.576 20.836-15.336 2.117-.578 4.328.67 4.914 2.801.582 2.131-.672 4.332-2.805 4.914-7.805 2.139-13.121 5.914-15.805 11.225-4.438 8.795-.559 19.08-.52 19.182.797 2.061-.23 4.377-2.289 5.174-.473.181-.961.269-1.441.269z"/><path d="m92.883 150.951c-1.051 0-2.102-.412-2.887-1.23-2.527-2.635-24.551-26.236-20.105-43.643 1.684-6.59 6.703-11.248 14.918-13.848 2.117-.664 4.355.504 5.02 2.607.668 2.107-.5 4.355-2.605 5.021-5.48 1.732-8.613 4.414-9.582 8.197-2.848 11.158 12.121 29.861 18.129 36.125 1.531 1.596 1.477 4.127-.117 5.656-.779.746-1.775 1.115-2.771 1.115z"/></g><g><circle cx="96.676" cy="88.726" fill="#b5a19c" r="12"/><path d="m96.645 104.73c-3.004 0-5.949-.85-8.547-2.498-3.609-2.291-6.109-5.852-7.035-10.023-.934-4.168-.184-8.451 2.105-12.061 2.293-3.607 5.852-6.107 10.023-7.039 8.621-1.926 17.176 3.523 19.098 12.129.934 4.172.184 8.457-2.105 12.064-2.293 3.609-5.852 6.107-10.023 7.039-1.169.261-2.349.389-3.516.389zm.031-24.005c-.574 0-1.156.062-1.742.193-2.086.465-3.867 1.717-5.012 3.52-1.145 1.805-1.52 3.945-1.055 6.029.465 2.088 1.715 3.867 3.52 5.012 1.797 1.143 3.926 1.518 6.031 1.055 2.086-.465 3.867-1.715 5.012-3.52 1.145-1.803 1.52-3.945 1.055-6.029-.833-3.723-4.145-6.26-7.809-6.26z" fill="#4c241d"/></g><g><path d="m115.777 100.856c-2.407-10.78-9.606-10.151-18.23-8.226s-15.408 4.417-13.001 15.198 13.092 25.767 21.716 23.841c8.624-1.925 11.922-20.033 9.515-30.813z" fill="#6b4f5b"/><path d="m104.688 135.842c-10.91 0-21.461-15.574-24.043-27.143-1.43-6.391-.215-11.361 3.598-14.773 3.336-2.982 8.168-4.248 12.434-5.199 4.27-.951 9.168-1.863 13.465-.58 4.902 1.465 8.113 5.447 9.539 11.838 2.777 12.434-.812 32.969-12.547 35.59-.818.181-1.634.267-2.446.267zm.742-40.33c-2.066 0-4.555.475-7.012 1.023-3.523.785-7.031 1.736-8.84 3.355-.676.602-2.254 2.014-1.129 7.066 2.297 10.289 11.824 21.98 16.941 20.809 5.145-1.148 8.777-15.75 6.484-26.039-1.129-5.051-3.16-5.656-4.027-5.916-.702-.208-1.519-.298-2.417-.298z" fill="#4c241d"/></g><g><circle cx="211.507" cy="196.446" fill="#e66353" r="20"/><path d="m211.504 220.449c-1.988 0-4-.248-6.012-.768-12.809-3.316-20.535-16.438-17.219-29.248 1.605-6.205 5.531-11.416 11.055-14.668 5.523-3.254 11.977-4.156 18.191-2.555 12.809 3.316 20.539 16.436 17.223 29.248-2.797 10.804-12.566 17.991-23.238 17.991zm-.027-40.01c-2.816 0-5.598.752-8.09 2.219-3.684 2.17-6.301 5.643-7.371 9.779-2.207 8.541 2.941 17.289 11.484 19.498 8.512 2.211 17.285-2.939 19.5-11.48 2.207-8.541-2.945-17.289-11.488-19.498-1.336-.346-2.688-.518-4.035-.518zm19.394 21.018h.039z" fill="#4c241d"/></g><g><ellipse cx="204.994" cy="221.617" fill="#e66353" rx="30" ry="28" transform="matrix(.251 -.968 .968 .251 -60.909 364.559)"/><path d="m204.117 255.51c-2.551 0-5.113-.324-7.641-.977-8.324-2.154-15.242-7.633-19.48-15.43-4.184-7.703-5.246-16.762-2.98-25.502 2.262-8.742 7.582-16.15 14.977-20.855 7.488-4.764 16.191-6.191 24.52-4.045 17.078 4.42 27.156 22.781 22.461 40.932-2.262 8.742-7.582 16.15-14.977 20.855-5.216 3.319-11.024 5.022-16.88 5.022zm1.778-59.78c-4.359 0-8.695 1.277-12.605 3.764-5.684 3.615-9.777 9.338-11.531 16.111s-.945 13.762 2.27 19.68c3.164 5.824 8.297 9.91 14.453 11.502 6.164 1.596 12.625.508 18.219-3.047 5.68-3.615 9.777-9.338 11.531-16.111 3.59-13.879-3.914-27.869-16.723-31.182-1.857-.48-3.739-.717-5.614-.717zm26.207 32.901h.039z" fill="#4c241d"/></g><path d="m224.266 183.088c-1.371 0-2.707-.705-3.449-1.971-1.121-1.904-.488-4.355 1.414-5.477l9.75-5.74c1.914-1.119 4.363-.484 5.477 1.418 1.121 1.904.488 4.355-1.414 5.477l-9.75 5.74c-.642.375-1.341.553-2.028.553z" fill="#4c241d"/><path d="m209.109 179.648c-1.371 0-2.707-.703-3.449-1.971l-6.074-10.316c-1.121-1.904-.488-4.355 1.414-5.477 1.918-1.123 4.363-.486 5.477 1.418l6.074 10.316c1.121 1.904.488 4.355-1.414 5.477-.641.376-1.336.553-2.028.553z" fill="#4c241d"/><circle cx="225.426" cy="214.509" fill="#4c241d" r="6"/><circle cx="197.317" cy="211.367" fill="#4c241d" r="6"/><circle cx="211.236" cy="229.43" fill="#4c241d" r="8"/><circle cx="185.997" cy="231.163" fill="#4c241d" r="8"/><g><circle cx="224" cy="92" fill="#816982" r="40"/><path d="m224 136c-24.262 0-44-19.738-44-44s19.738-44 44-44 44 19.738 44 44-19.738 44-44 44zm0-80c-19.852 0-36 16.15-36 36s16.148 36 36 36 36-16.15 36-36-16.148-36-36-36z" fill="#4c241d"/></g><g><path d="m224 108c-6.627 0-12-5.373-12-12v-8c0-6.627 5.373-12 12-12 6.627 0 12 5.373 12 12v8c0 6.627-5.373 12-12 12z" fill="#26deeb"/><path d="m224 112c-8.824 0-16-7.178-16-16v-8c0-8.822 7.176-16 16-16s16 7.178 16 16v8c0 8.822-7.176 16-16 16zm0-32c-4.41 0-8 3.588-8 8v8c0 4.412 3.59 8 8 8s8-3.588 8-8v-8c0-4.412-3.59-8-8-8z" fill="#4c241d"/></g><path d="m211.996 84c-.602 0-1.211-.135-1.785-.422l-8-4c-1.977-.988-2.777-3.391-1.789-5.367.988-1.975 3.391-2.779 5.367-1.789l8 4c1.977.988 2.777 3.391 1.789 5.367-.703 1.402-2.113 2.211-3.582 2.211z" fill="#4c241d"/><path d="m212 96h-8c-2.211 0-4-1.791-4-4s1.789-4 4-4h8c2.211 0 4 1.791 4 4s-1.789 4-4 4z" fill="#4c241d"/><path d="m208 112c-1.023 0-2.047-.391-2.828-1.172-1.562-1.562-1.562-4.094 0-5.656l4-4c1.562-1.562 4.094-1.562 5.656 0s1.562 4.094 0 5.656l-4 4c-.781.781-1.805 1.172-2.828 1.172z" fill="#4c241d"/><path d="m236.004 84c-1.469 0-2.879-.809-3.582-2.211-.988-1.977-.188-4.379 1.789-5.367l8-4c1.973-.99 4.375-.186 5.367 1.789.988 1.977.188 4.379-1.789 5.367l-8 4c-.574.287-1.184.422-1.785.422z" fill="#4c241d"/><path d="m244 96h-8c-2.211 0-4-1.791-4-4s1.789-4 4-4h8c2.211 0 4 1.791 4 4s-1.789 4-4 4z" fill="#4c241d"/><path d="m240 112c-1.023 0-2.047-.391-2.828-1.172l-4-4c-1.562-1.562-1.562-4.094 0-5.656s4.094-1.562 5.656 0l4 4c1.562 1.562 1.562 4.094 0 5.656-.781.781-1.805 1.172-2.828 1.172z" fill="#4c241d"/><g><circle cx="96" cy="220" fill="#bd53b5" r="20"/><path d="m96 244c-13.234 0-24-10.766-24-24s10.766-24 24-24 24 10.766 24 24-10.766 24-24 24zm0-40c-8.824 0-16 7.178-16 16s7.176 16 16 16 16-7.178 16-16-7.176-16-16-16z" fill="#4c241d"/></g></g></svg>