<svg height="512" viewBox="0 0 60 60" width="512" xmlns="http://www.w3.org/2000/svg"><g id="026---Spider" fill="none"><g fill="#2c3e50"><path id="Shape" d="m22.78 44.56c-.43 0 .72.66-14.57-9.23-.71890772-.4681004-1.20302475-1.2215758-1.33-2.07l-2.88-19.11c-.0828427-.5522847.29771526-1.0671573.85-1.15.55228475-.0828427 1.06715728.2977153 1.15.85l2.86 19.15c.04153438.2822311.20162866.5332881.44.69l14 9.07c.3350821.2487813.4804297.6794966.3646015 1.0804404-.1158282.4009439-.4684727.6877948-.8846015.7195596z"/><path id="Shape" d="m22.09 46.81c-.92 0 3.22.22-11.15-.75-.95004795-.0611011-1.81470362-.5695038-2.33-1.37l-8.45-13.15c-.26346242-.4618613-.1194165-1.0491348.32785661-1.3366675.44727312-.2875327 1.04134603-.1747642 1.35214339.2566675l8.46 13.15c.1696515.2662969.4551053.4368277.77.46l11.09.74c.5522847.01933.9843299.4827153.9649999 1.035-.0193299.5522847-.4827152.9843299-1.0349999.965z"/><path id="Shape" d="m11.43 52.72c-.7347965.0065999-1.44646062-.2567158-2-.74l-7.09-6.23c-.38608401-.3708372-.41164637-.9799503-.05799067-1.3818318.35365569-.4018815.96107568-.4539702 1.37799067-.1181682l7.11 6.22c.2737532.2409348.6569579.3137437 1 .19l10-3.56c.3394023-.1161113.7149676-.0423336.9852241.1935417.2702565.2358754.3941458.5980134.325.95-.0691458.3519867-.3208218.640347-.6602241.7564583-10.75 3.83-10.25 3.72-10.99 3.72z"/><path id="Shape" d="m15.33 59.54c-.84 0-.76-.07-6.72-2.62-.34272802-.1298693-.58695097-.4368224-.63648369-.7999685-.04953272-.363146.10356214-.7242929.39898944-.9412058.2954273-.216913.6858465-.2548331 1.01749425-.0988257l5.54 2.37c.428057.182636.925522.0458331 1.2-.33l5.63-7.75c.2107867-.2893851.5599468-.4443347.915955-.4064806s.6647785.2627608.81.59.1048317.7070955-.105955.9964806l-5.63 7.75c-.5622773.7761718-1.4615693 1.2369661-2.42 1.24z"/><path id="Shape" d="m37.22 44.56c-.4428695-.0011432-.832237-.2934465-.9569502-.7183951-.1247131-.4249485.0449371-.8813114.4169502-1.1216049l14-9.07c.2383713-.1567119.3984656-.4077689.44-.69l2.88-19.11c.0828427-.5522847.5977153-.9328427 1.15-.85s.9328427.5977153.85 1.15l-2.88 19.11c-.1269753.8484242-.6110923 1.6018996-1.33 2.07-15.16 9.8-14.14 9.23-14.57 9.23z"/><path id="Shape" d="m37.91 46.81c-.5522847.0193299-1.01567-.4127153-1.0349999-.965-.01933-.5522847.4127152-1.01567.9649999-1.035l11.09-.74c.3148947-.0231723.6003485-.1937031.77-.46l8.46-13.15c.2987099-.4632328.9159327-.5974116 1.38-.3.4632328.2987099.5974116.9159327.3 1.38l-8.46 13.15c-.5132395.7977803-1.3735601 1.3058144-2.32 1.37z"/><path id="Shape" d="m48.57 52.72c-.73 0-.19.12-11-3.74-.5035862-.1984283-.7578837-.7615185-.5737784-1.2705156.1841054-.5089971.7397776-.7791195 1.2537784-.6094844l10 3.56c.3430421.1237437.7262468.0509348 1-.19l7.11-6.22c.2651659-.2546943.6487093-.3433359.9987417-.2308216.3500324.1125144.6100907.4080352.6771882.7695321.0670976.361497-.069589.7306577-.3559299.9612895l-7.14 6.25c-.5486459.4692141-1.2480923.7248493-1.97.72z"/><path id="Shape" d="m44.67 59.54c-.9584307-.0030339-1.8577227-.4638282-2.42-1.24l-5.63-7.75c-.2107867-.2893851-.2511765-.6692414-.105955-.9964806s.4539918-.5521459.81-.59c.3560082-.037854.7051683.1170955.915955.4064806l5.63 7.75c.274478.3758331.771943.512636 1.2.33l5.54-2.37c.3316478-.1560074.7220669-.1180873 1.0174942.0988257.2954274.2169129.4485222.5780598.3989895.9412058-.0495327.3631461-.2937557.6700992-.6364837.7999685-5.94 2.54-5.89 2.62-6.72 2.62z"/></g><path id="Shape" d="m30 18c-.5522847 0-1-.4477153-1-1v-9c0-.55228475.4477153-1 1-1s1 .44771525 1 1v9c0 .5522847-.4477153 1-1 1z" fill="#bdc3c7"/><path id="Shape" d="m37 43.12c1.6493978 2.9654065 1.2485987 6.6487498-1 9.19h-12c-2.2485987-2.5412502-2.6493978-6.2245935-1-9.19z" fill="#35495e"/><path id="Shape" d="m24 59c-.5522847 0-1-.4477153-1-1-.0581749-1.5330755.3086743-3.0523848 1.06-4.39.2927109-.469442.910558-.6127109 1.38-.32s.6127109.910558.32 1.38c-.5596154 1.0171404-.822909 2.1707819-.76 3.33 0 .2652165-.1053568.5195704-.2928932.7071068s-.4418903.2928932-.7071068.2928932z" fill="#c03a2b"/><path id="Shape" d="m36 59c-.5522847 0-1-.4477153-1-1 .062909-1.1592181-.2003846-2.3128596-.76-3.33-.1893508-.3036758-.202309-.6853011-.0339935-1.0011216.1683156-.3158204.4923337-.5178553.85-.53s.6946427.1674458.8839935.4711216c.7513257 1.3376152 1.1181749 2.8569245 1.06 4.39 0 .5522847-.4477153 1-1 1z" fill="#c03a2b"/><circle id="Oval" cx="27" cy="52" fill="#e64c3c" r="4"/><circle id="Oval" cx="33" cy="52" fill="#e64c3c" r="4"/><circle id="Oval" cx="27" cy="52" fill="#fff" r="3"/><circle id="Oval" cx="33" cy="52" fill="#fff" r="3"/><path id="Shape" d="m30 5c-.5522847 0-1-.44771525-1-1v-3c0-.55228475.4477153-1 1-1s1 .44771525 1 1v3c0 .55228475-.4477153 1-1 1z" fill="#bdc3c7"/><circle id="Oval" cx="30" cy="31" fill="#3f5c6c" r="14"/><ellipse id="Oval" cx="30" cy="31" fill="#547580" rx="12" ry="14"/><ellipse id="Oval" cx="30" cy="37" fill="#c03a2b" rx="5" ry="3"/><ellipse id="Oval" cx="30" cy="32" fill="#c03a2b" rx="3" ry="2"/></g></svg>