<svg id="icon" height="512" viewBox="0 0 128 128" width="512" xmlns="http://www.w3.org/2000/svg"><path d="m21.502 70.703 36.551-17.634h9.008l-17.784 17.634z" fill="#81dafc"/><path d="m49.276 71.7h-27.776a1 1 0 0 1 -.435-1.9l36.554-17.632a1.007 1.007 0 0 1 .435-.1h9.007a1 1 0 0 1 .7 1.71l-17.781 17.635a1 1 0 0 1 -.704.287zm-23.4-2h22.988l15.768-15.631h-6.35z" fill="#2f3a5a"/><path d="m119.783 63.645-21.34-3.078s-63.155.188-71.941-.043-11.264-.232-14.8 1.85c-1.812 1.068-2.774 2.774-6.242 3.7s-5.089 2.8-4.244 5.492c1.638 5.222 20.659 6.3 20.659 6.3h53.989a72.923 72.923 0 0 0 17.48-2.126l26.71-6.6a2.8 2.8 0 0 0 -.272-5.5z" fill="#d9e2e9"/><path d="m120.646 63.921a2.776 2.776 0 0 1 -1.318.747l-26.71 6.6a73.1 73.1 0 0 1 -17.482 2.124h-53.986s-15.417-.879-19.683-4.86a3.588 3.588 0 0 0 -.247 3.033c1.637 5.221 20.658 6.3 20.658 6.3h53.985a72.781 72.781 0 0 0 17.482-2.13l26.71-6.591a2.8 2.8 0 0 0 .591-5.221z" fill="#c1cdd3"/><path d="m75.864 78.863h-53.985c-3.348-.188-19.856-1.4-21.612-7a4.576 4.576 0 0 1 .256-3.7c.772-1.4 2.349-2.433 4.685-3.056a10.078 10.078 0 0 0 4.276-2.331 13.239 13.239 0 0 1 1.716-1.264c3.729-2.2 6.256-2.227 15.33-1.988 8.669.229 71.28.044 71.911.042.019-.015.1 0 .146.01l21.34 3.079a3.8 3.8 0 0 1 .368 7.457l-26.71 6.6a73.992 73.992 0 0 1 -17.721 2.151zm-54.906-17.441c-4.456 0-6.3.373-8.743 1.812a11.58 11.58 0 0 0 -1.458 1.083 11.928 11.928 0 0 1 -5.034 2.721c-1.764.47-2.955 1.192-3.448 2.087a2.63 2.63 0 0 0 -.1 2.139c1.042 3.322 12.674 5.2 19.761 5.6h53.928a72.017 72.017 0 0 0 17.241-2.1l26.71-6.6a1.8 1.8 0 0 0 -.175-3.536l-21.267-3.062c-2.481.008-63.332.182-71.9-.043-2.214-.058-4.013-.101-5.515-.101z" fill="#2f3a5a"/><path d="m98.443 60.566 14.431-16.842h7.023l-4.791 19.258z" fill="#81dafc"/><path d="m115.107 63.981a1.038 1.038 0 0 1 -.145-.01l-16.662-2.415a1 1 0 0 1 -.616-1.641l14.431-16.842a1 1 0 0 1 .76-.349h7.025a1 1 0 0 1 .971 1.241l-4.791 19.257a1 1 0 0 1 -.973.759zm-14.723-4.144 13.97 2.024 4.264-17.137h-5.284z" fill="#2f3a5a"/><path d="m38.082 71.951 41.054 12.325h9.008l-22.288-12.325z" fill="#81dafc"/><path d="m88.144 85.275h-9.007a1 1 0 0 1 -.287-.042l-41.055-12.324a1 1 0 0 1 .287-1.958h27.773a1 1 0 0 1 .484.125l22.289 12.324a1 1 0 0 1 -.484 1.875zm-8.86-2h4.985l-18.669-10.324h-20.709z" fill="#2f3a5a"/><path d="m97.625 67.237 20.968 6.152h8.407l-12.323-6.152z" fill="#81dafc"/><path d="m127 74.39h-8.407a.992.992 0 0 1 -.281-.041l-20.968-6.149a1 1 0 0 1 .281-1.959h17.052a1 1 0 0 1 .446.105l12.323 6.154a1 1 0 0 1 -.446 1.89zm-8.264-2h4.022l-8.317-4.153h-9.857z" fill="#2f3a5a"/><g fill="#84879c"><path d="m28.172 64.424a1.487 1.487 0 0 0 -1.487 1.487v.909a1.487 1.487 0 1 0 2.974 0v-.909a1.487 1.487 0 0 0 -1.487-1.487z"/><path d="m34.451 64.424a1.487 1.487 0 0 0 -1.487 1.487v.909a1.487 1.487 0 1 0 2.974 0v-.909a1.487 1.487 0 0 0 -1.487-1.487z"/><path d="m40.729 64.424a1.487 1.487 0 0 0 -1.487 1.487v.909a1.487 1.487 0 1 0 2.974 0v-.909a1.487 1.487 0 0 0 -1.487-1.487z"/><path d="m47.008 64.424a1.487 1.487 0 0 0 -1.487 1.487v.909a1.487 1.487 0 1 0 2.974 0v-.909a1.487 1.487 0 0 0 -1.487-1.487z"/><path d="m53.287 64.424a1.487 1.487 0 0 0 -1.487 1.487v.909a1.487 1.487 0 1 0 2.974 0v-.909a1.487 1.487 0 0 0 -1.487-1.487z"/><path d="m59.566 64.424a1.487 1.487 0 0 0 -1.487 1.487v.909a1.487 1.487 0 1 0 2.974 0v-.909a1.487 1.487 0 0 0 -1.487-1.487z"/><path d="m65.845 64.424a1.487 1.487 0 0 0 -1.487 1.487v.909a1.487 1.487 0 1 0 2.974 0v-.909a1.487 1.487 0 0 0 -1.487-1.487z"/><path d="m72.123 64.424a1.487 1.487 0 0 0 -1.487 1.487v.909a1.487 1.487 0 1 0 2.974 0v-.909a1.487 1.487 0 0 0 -1.487-1.487z"/><path d="m78.4 64.424a1.487 1.487 0 0 0 -1.487 1.487v.909a1.487 1.487 0 1 0 2.974 0v-.909a1.487 1.487 0 0 0 -1.487-1.487z"/><path d="m84.681 64.424a1.487 1.487 0 0 0 -1.487 1.487v.909a1.487 1.487 0 1 0 2.974 0v-.909a1.487 1.487 0 0 0 -1.487-1.487z"/></g><path d="m10.114 63.551a56.182 56.182 0 0 0 8.832 2v2.419a22.091 22.091 0 0 1 -15.852-.957 17.434 17.434 0 0 0 7.02-3.462z" fill="#3dbce9"/><path d="m12.426 70a24.074 24.074 0 0 1 -9.733-2.071 1 1 0 0 1 .129-1.877 16.754 16.754 0 0 0 6.634-3.252 1 1 0 0 1 .974-.2 55.625 55.625 0 0 0 8.657 1.961 1 1 0 0 1 .86.99v2.419a1 1 0 0 1 -.634.931 20.226 20.226 0 0 1 -6.887 1.099zm-6.326-2.941a21.4 21.4 0 0 0 11.85.188v-.833a58.412 58.412 0 0 1 -7.611-1.745 16.412 16.412 0 0 1 -4.239 2.39z" fill="#2f3a5a"/></svg>